# File created by Blade
# Date/Time:  Tue Jan 27 19:18:41 2015
# Frame Rate: 120.000 fps
#------------------------------------------------------
:FULLY-SPECIFIED
:DEGREES
3893
root 0.733101 32.131581 0.927031 -2.748279 -35.193828 -4.773693
Spine -0.003940 -16.500990 -8.765840
Head 23.263520 15.878531 19.240515
LeftShoulder -13.692655 3.473289 32.198661
LeftArm -10.238319 34.687772 -106.523792
LeftForeArm 8.073282 -0.000000 21.760473
LeftHand 10.489088 -0.000000 -3.386463
LeftHandThumb1 -26.253704 0.000000 33.147579
RightShoulder -32.424501 -22.052603 -36.647233
RightArm -91.867279 84.096162 -33.870800
RightForeArm 40.887467 -0.000000 87.434884
RightHand 28.383078 -0.000000 -45.037012
RightHandThumb1 -24.326973 -0.000000 -32.862282
LeftUpLeg 22.637848 22.545359 11.104020
LeftLeg -1.398256 -0.000000 0.000000
LeftFoot -23.266591 21.223929 -30.268192
LeftToeBase 14.880262 -0.000000 -0.000000
RightUpLeg 4.063581 13.056905 11.735895
RightLeg 11.668186 -0.000000 -0.000000
RightFoot -9.059336 -2.579329 8.443588
RightToeBase 13.674620 -0.000000 -0.000000
3894
root 0.756576 32.134189 0.925409 -2.742447 -35.173223 -4.753392
Spine 0.009751 -16.421345 -8.715614
Head 23.199902 15.967885 19.207783
LeftShoulder -13.802030 3.349458 32.201557
LeftArm -10.319170 34.767949 -106.591577
LeftForeArm 8.053408 -0.000000 21.830200
LeftHand 10.552734 0.000000 -3.497346
LeftHandThumb1 -26.253704 0.000000 33.147579
RightShoulder -32.548857 -22.194087 -36.567034
RightArm -89.996553 84.362509 -32.017458
RightForeArm 40.731983 -0.000000 87.542534
RightHand 28.364440 -0.000000 -45.245884
RightHandThumb1 -24.326973 -0.000000 -32.862282
LeftUpLeg 22.608859 22.616142 11.071594
LeftLeg -1.432152 -0.000000 0.000000
LeftFoot -23.180829 21.172444 -30.209490
LeftToeBase 15.013828 -0.000000 -0.000000
RightUpLeg 3.983704 13.041571 11.679080
RightLeg 11.733429 -0.000000 -0.000000
RightFoot -9.062798 -2.586852 8.462507
RightToeBase 13.552994 -0.000000 -0.000000
3895
root 0.783955 32.136055 0.922142 -2.735599 -35.128975 -4.707255
Spine 0.008325 -16.346021 -8.683662
Head 23.159168 16.039306 19.201706
LeftShoulder -13.823023 3.328622 32.187036
LeftArm -10.276284 34.785736 -106.601971
LeftForeArm 8.132162 -0.000000 21.899345
LeftHand 10.503563 0.000000 -3.543341
LeftHandThumb1 -26.253704 0.000000 33.147579
RightShoulder -32.521496 -22.148622 -36.593926
RightArm -89.326006 84.355175 -31.390777
RightForeArm 40.567674 0.000000 87.708719
RightHand 28.191008 -0.000000 -45.481729
RightHandThumb1 -24.326973 -0.000000 -32.862282
LeftUpLeg 22.541009 22.621144 10.975047
LeftLeg -1.451781 -0.000000 0.000000
LeftFoot -23.068838 21.236604 -29.962753
LeftToeBase 14.917771 -0.000000 -0.000000
RightUpLeg 3.889732 13.043544 11.596861
RightLeg 11.786967 -0.000000 -0.000000
RightFoot -9.094801 -2.623618 8.479534
RightToeBase 13.574920 -0.000000 -0.000000
3896
root 0.803032 32.139093 0.920934 -2.712999 -35.046526 -4.703667
Spine 0.001403 -16.284785 -8.642063
Head 23.141185 16.044486 19.217082
LeftShoulder -13.770682 3.319408 32.191226
LeftArm -10.292550 34.750436 -106.633988
LeftForeArm 8.248134 0.000000 22.025558
LeftHand 10.462123 -0.000000 -3.586546
LeftHandThumb1 -26.253704 0.000000 33.147579
RightShoulder -32.517671 -22.151353 -36.583065
RightArm -88.292731 84.373341 -30.418993
RightForeArm 40.453058 -0.000000 87.863395
RightHand 28.352385 -0.000000 -45.412788
RightHandThumb1 -24.326973 -0.000000 -32.862282
LeftUpLeg 22.489126 22.655054 10.958477
LeftLeg -1.469110 -0.000000 0.000000
LeftFoot -23.011955 21.138433 -29.931018
LeftToeBase 14.884749 -0.000000 -0.000000
RightUpLeg 3.839625 13.081795 11.576888
RightLeg 11.803388 -0.000000 -0.000000
RightFoot -9.122574 -2.729890 8.532463
RightToeBase 14.290755 -0.000000 -0.000000
3897
root 0.826244 32.140421 0.919607 -2.723784 -34.983136 -4.654267
Spine 0.024884 -16.225488 -8.641554
Head 23.091426 16.070919 19.219959
LeftShoulder -13.738471 3.270143 32.198110
LeftArm -10.382965 34.695010 -106.701629
LeftForeArm 8.306439 -0.000000 22.189547
LeftHand 10.448772 -0.000000 -3.482153
LeftHandThumb1 -26.253704 0.000000 33.147579
RightShoulder -32.485893 -22.156592 -36.575110
RightArm -87.221893 84.395534 -29.377266
RightForeArm 40.240152 -0.000000 88.014483
RightHand 28.295132 -0.000000 -45.582395
RightHandThumb1 -24.326973 -0.000000 -32.862282
LeftUpLeg 22.450892 22.683415 10.890320
LeftLeg -1.501611 -0.000000 0.000000
LeftFoot -22.942593 21.076223 -29.871077
LeftToeBase 14.909895 -0.000000 -0.000000
RightUpLeg 3.764034 13.093918 11.510632
RightLeg 11.874064 -0.000000 -0.000000
RightFoot -9.178358 -2.814744 8.540968
RightToeBase 14.317030 -0.000000 -0.000000
